PathFileType	4	(X/Y/Z)	H:\MAC\Pilotos\MDrajagopal3\Trimmed_runO3.trc
DataRate	CameraRate	NumFrames	NumMarkers	Units	OrigDataRate	OrigDataStartFrame	OrigNumFrames
150.00	150.00	       5	78	mm	150.00	31	       123
Frame#	Time	RACR			LACR			C7			CLAV			RASH			RPSH			LASH			LPSH			RUA1			RUA2			RUA3			RLEL			RMEL			RFAsuperior			RFAradius			RFAulna			LUA1			LUA2			LUA3			LLEL			LMEL			LFAsuperior			LFAradius			LFAulna			RASI			LASI			RPSI			LPSI			RTH1			RTH2			RTH3			RLFC			RMFC			RTB1			RTB2			RTB3			RLMAL			RMMAL			RCAL			RTOE			RMT5			LTH1			LTH2			LTH3			LLFC			LMFC			LTB1			LTB2			LTB3			LLMAL			LMMAL			LCAL			LTOE			LMT5			RSJC			LSJC			RHJC			LHJC			RKJC			LKJC			RAJC			LAJC			REJC			LEJC			Mid_ASIS			Mid_PSIS			RASHv			RPSHv			LPSHv			RLFCv			RMFCv			RLMALv			RMMALv			LLFCv			LMFCv			LLMALv			LMMALv			LASHv			
		X1	Y1	Z1	X2	Y2	Z2	X3	Y3	Z3	X4	Y4	Z4	X5	Y5	Z5	X6	Y6	Z6	X7	Y7	Z7	X8	Y8	Z8	X9	Y9	Z9	X10	Y10	Z10	X11	Y11	Z11	X12	Y12	Z12	X13	Y13	Z13	X14	Y14	Z14	X15	Y15	Z15	X16	Y16	Z16	X17	Y17	Z17	X18	Y18	Z18	X19	Y19	Z19	X20	Y20	Z20	X21	Y21	Z21	X22	Y22	Z22	X23	Y23	Z23	X24	Y24	Z24	X25	Y25	Z25	X26	Y26	Z26	X27	Y27	Z27	X28	Y28	Z28	X29	Y29	Z29	X30	Y30	Z30	X31	Y31	Z31	X32	Y32	Z32	X33	Y33	Z33	X34	Y34	Z34	X35	Y35	Z35	X36	Y36	Z36	X37	Y37	Z37	X38	Y38	Z38	X39	Y39	Z39	X40	Y40	Z40	X41	Y41	Z41	X42	Y42	Z42	X43	Y43	Z43	X44	Y44	Z44	X45	Y45	Z45	X46	Y46	Z46	X47	Y47	Z47	X48	Y48	Z48	X49	Y49	Z49	X50	Y50	Z50	X51	Y51	Z51	X52	Y52	Z52	X53	Y53	Z53	X54	Y54	Z54	X55	Y55	Z55	X56	Y56	Z56	X57	Y57	Z57	X58	Y58	Z58	X59	Y59	Z59	X60	Y60	Z60	X61	Y61	Z61	X62	Y62	Z62	X63	Y63	Z63	X64	Y64	Z64	X65	Y65	Z65	X66	Y66	Z66	X67	Y67	Z67	X68	Y68	Z68	X69	Y69	Z69	X70	Y70	Z70	X71	Y71	Z71	X72	Y72	Z72	X73	Y73	Z73	X74	Y74	Z74	X75	Y75	Z75	X76	Y76	Z76	X77	Y77	Z77	X78	Y78	Z78	

31	0.200	526.24323	1320.34436	-28.08819	552.25726	1384.42651	-366.44223	472.67734	1383.95813	-201.83246	609.94299	1299.11133	-159.31169													531.32916	1182.72131	18.86831	568.78302	1109.42578	6.36011	480.07776	1080.29297	0.77365	517.90112	1025.90771	29.14318	533.66852	1011.13593	-59.26833	655.24634	997.11090	8.24757	731.02515	965.79889	-14.76876	720.98346	905.30371	27.03070	515.74829	1322.73132	-456.76849	490.84747	1233.39417	-490.60577	410.10110	1272.58838	-472.69281	432.55743	1203.34851	-538.04718	365.91193	1187.47852	-477.44211	471.36328	1063.87842	-514.24658	477.96240	1000.21356	-458.75363	450.78336	969.54895	-521.00720	509.57825	864.93945	-110.83779	548.57190	856.86438	-344.20978	356.23303	908.47186	-218.99626	365.40915	906.27161	-297.10971	400.88385	764.53406	-82.46272	365.08136	606.89355	-131.69788	428.19800	572.45013	-97.64540							429.86331	305.52707	-177.36887	334.08737	309.51816	-127.33367	319.74051	187.76639	-174.53180							172.68755	89.43620	-258.90259	366.20828	31.84102	-218.30179	317.82556	30.18966	-182.27364	478.57056	771.53522	-415.79446	504.58542	617.45508	-396.55579	597.24799	572.33075	-410.14032							601.85382	376.62555	-350.36795	501.61713	438.91776	-399.18542	429.35266	317.66196	-370.63235							266.49753	329.23035	-317.15308	327.85892	149.07962	-362.25839	307.03644	175.19255	-395.95200																									525.78479	1018.52185	-15.06258	399.23468	1195.41345	-507.74463	529.07507	860.90192	-227.52379	360.82111	907.37170	-258.05298	629.33667	1214.56238	-26.03703	519.17151	1236.06665	-8.64044	601.83331	1365.64502	-408.00778	397.43408	466.89130	-104.08667	474.50439	444.89633	-214.68161	236.10574	73.68233	-181.86302	279.30133	77.28561	-262.63290	634.32690	523.24158	-437.32172	653.70221	506.61520	-306.69000	312.64081	272.40970	-376.68536	359.95175	236.89067	-306.25525	655.41150	1284.40088	-437.30252	
32	0.207	547.35651	1326.65820	-28.29026	568.88013	1388.51184	-366.39960	490.68314	1387.94446	-201.40813	629.83868	1303.83411	-160.24744													554.65118	1188.85046	18.80939	593.24963	1116.21228	5.12796	504.28824	1086.75439	-1.42831	542.85284	1032.61353	27.11196	558.91986	1019.00708	-61.39828	682.05627	1009.28094	2.70021	758.47986	981.38287	-22.56211	752.41107	921.53101	20.42262	530.40967	1329.95886	-456.75977	504.11722	1241.87598	-492.12897	424.45587	1282.47229	-472.61322	444.91476	1214.28772	-539.58527	378.20651	1198.96655	-479.00449	480.79736	1073.99646	-517.37708	485.87973	1009.96002	-462.06104	458.79971	980.47095	-524.91650	526.54779	867.55078	-109.03055	566.65088	860.04218	-342.28397	374.33389	911.84045	-218.00360	383.46771	909.98706	-295.99908	416.06973	767.49103	-82.50064	375.61139	611.89813	-131.61789	437.62277	575.82214	-97.53204							433.46378	308.23935	-175.85069	338.01483	313.20682	-126.13335	322.49292	191.56425	-172.30612							174.72098	95.26492	-256.06802	318.37741	30.29144	-181.68416	366.16293	31.83380	-218.11853	498.75342	776.58221	-415.30536	528.23236	623.02185	-395.60510	622.02393	580.23096	-407.48434							633.82178	383.84561	-347.08218	530.51807	440.20111	-396.20401	464.63748	315.28217	-369.25568							300.37051	317.77313	-317.02673	373.38754	141.85597	-363.15045	351.32248	167.07423	-396.70633																									550.88635	1025.81030	-17.14316	411.56064	1206.62720	-509.29489	546.59930	863.79651	-225.65726	378.90079	910.91376	-257.00134	652.66589	1222.16248	-24.99982	541.92499	1242.53906	-7.75827	617.39929	1370.70105	-407.74243	403.38260	470.11737	-104.37862	479.75446	445.83313	-214.97911	238.04349	77.77428	-179.15840	281.35306	80.57463	-259.89905	660.94159	532.21198	-434.05063	678.35260	515.98706	-303.09225	351.57074	262.61798	-375.99460	400.45190	229.60211	-305.41904	669.65704	1289.34058	-439.03162	
33	0.213	568.62170	1333.60156	-28.58470	585.19897	1393.15063	-366.22427	508.61978	1392.11560	-200.96509	648.14178	1307.97144	-161.07193													578.06329	1195.24097	18.22170	617.81323	1123.87378	4.08106	528.45490	1093.79150	-2.04972	567.46631	1040.17444	25.80592	582.89917	1027.85474	-62.91880	707.69330	1022.20251	-2.46055	784.37201	997.72510	-30.19734	782.31927	938.22559	13.43280	545.13916	1337.62415	-456.56744	517.69482	1251.40271	-493.47699	438.93591	1292.74609	-472.51984	457.49329	1225.55200	-540.76697	390.31531	1211.07092	-480.31918	491.42023	1085.04187	-519.26862	494.76920	1020.65717	-465.01395	467.63654	992.15204	-528.36664	543.91943	870.38531	-107.26570	585.29657	864.14606	-340.25500	392.77972	915.57977	-216.97876	401.82611	914.28540	-295.03381	430.98563	771.66425	-82.66179	386.44232	617.46484	-131.57954	447.68457	579.76361	-96.81163							437.43607	311.74408	-174.58113	342.07742	317.99963	-124.75254	325.73117	196.04643	-169.95973							177.18262	101.93430	-252.87723	366.29639	31.92764	-217.75951	318.86591	30.49794	-181.16344	519.07690	782.21924	-414.92889	551.33899	629.18579	-395.02917	646.36108	588.56335	-404.88724							665.03009	390.51907	-344.02069	558.61194	440.76492	-393.32477	500.52527	312.55170	-365.90622							335.41431	305.24463	-316.53375	419.45786	134.75691	-363.41296	396.26825	159.01939	-396.95944																									575.18274	1034.01453	-18.55644	423.90430	1218.31140	-510.54306	564.60803	867.26569	-223.76036	397.30292	914.93256	-256.00629	675.59857	1229.27795	-26.09725	564.15906	1248.80286	-8.00935	632.93597	1376.09009	-407.15173	409.95044	474.72559	-104.00807	486.14734	448.04190	-214.17551	240.00806	82.97451	-175.50038	283.21481	84.66163	-256.32700	686.78693	541.38898	-430.65637	701.47681	525.04999	-299.37909	390.17075	253.27350	-372.54617	440.85547	223.31172	-301.88022	683.92957	1294.77930	-440.58282	
34	0.220	589.91711	1341.06763	-28.97915	601.21185	1398.27393	-365.97162	526.72467	1396.40955	-200.32928	667.50665	1313.20703	-162.40546													601.69788	1202.66846	17.38903	642.20551	1132.44336	2.94715	552.58276	1101.38196	-1.08663	592.02563	1048.33105	25.22242	605.40790	1037.41028	-63.80476	732.20068	1035.58887	-7.22039	809.11548	1014.74371	-37.80456	810.68170	955.01300	6.02422	560.12384	1345.33972	-456.34421	531.47546	1261.10242	-494.60764	453.68625	1303.33960	-472.35446	470.34842	1236.97559	-541.62671	402.90710	1223.24072	-481.27591	502.67853	1096.49561	-520.30353	504.41425	1031.87964	-467.51443	477.14981	1004.40210	-531.26617	561.63025	873.32147	-106.30055	604.23254	868.34399	-338.09039	411.58612	919.84943	-216.00673	420.76254	918.79987	-293.75537	446.68924	775.66083	-82.82645	397.04413	623.74841	-131.43477	458.08890	584.44446	-96.83282							442.08789	316.36835	-172.90517	345.91513	323.84341	-122.76149	329.58792	201.28979	-167.59781							180.69441	109.04507	-249.84634	365.96692	31.67172	-218.02505	319.65677	30.84350	-180.66176	539.65466	788.30396	-414.60284	574.34949	635.86908	-394.31812	670.16351	597.01367	-402.37970							695.13159	397.73618	-340.08713	586.15662	440.91055	-391.35544	536.19873	309.38208	-363.07724							370.64151	292.61688	-316.30222	466.18927	128.01692	-363.22723	441.68839	150.94945	-396.72870																									598.71680	1042.87061	-19.29117	436.62778	1230.10815	-511.45132	582.93140	870.83270	-222.19548	416.17432	919.32465	-254.88104	698.00427	1237.05432	-29.28543	586.28296	1255.81042	-8.85182	648.70099	1381.41541	-406.51999	416.05054	479.59079	-104.60999	490.32669	450.77557	-215.54956	242.87448	89.15142	-172.08827	286.14468	89.83742	-252.89566	712.06403	550.64221	-427.45255	724.51776	534.33063	-295.94086	429.69205	243.42122	-370.52472	481.22156	217.35585	-298.93121	698.31317	1300.07410	-441.89825	
35	0.227	611.45123	1348.77698	-29.60158	617.01141	1403.75537	-365.63553	544.76904	1401.12488	-199.63461	686.87225	1318.74353	-163.85071													625.79132	1211.24121	16.94534	666.66815	1141.49585	1.52842	576.95038	1109.54846	0.77236	617.00641	1056.95203	25.41350	627.42883	1047.29456	-63.97152	755.82324	1049.22351	-11.71292	832.79504	1031.53699	-44.66074	837.70630	971.69135	-1.72519	574.45569	1354.09509	-456.13846	545.53558	1270.74707	-495.36435	468.56891	1314.11389	-471.99899	483.47174	1248.28296	-541.99194	415.64984	1235.52820	-481.70584	514.38776	1108.14587	-520.78772	514.58868	1043.52002	-469.52414	487.29233	1016.98492	-533.66559	579.76202	875.94537	-104.38181	623.90582	872.58923	-336.31537	430.59677	923.96997	-215.21521	440.27609	924.43481	-293.14090	462.86887	779.73267	-84.00052	408.73676	630.20227	-131.52866	468.55746	589.31390	-96.53009							447.04352	321.49493	-171.75307	350.44949	330.29019	-121.50492	334.01254	207.00414	-165.11517							185.12735	116.86677	-246.92326	321.07013	31.34297	-180.03383	366.14572	31.70388	-217.82567	560.39868	794.79694	-414.31400	596.96893	643.03314	-393.69275	693.31464	605.56213	-400.04822							724.77386	404.29333	-336.33127	613.40460	440.52136	-389.08371	571.52039	306.10059	-360.90863							407.53073	279.15192	-314.96454	512.49744	121.48188	-362.23624	487.65067	142.94481	-395.93469																									622.21759	1052.12329	-19.27901	449.56079	1241.90564	-511.84891	601.83392	874.26727	-220.34860	435.43643	924.20239	-254.17805	720.13440	1246.12610	-33.23678	608.81384	1264.02905	-9.04455	663.20526	1389.15332	-405.89651	422.68216	484.69315	-104.18498	496.12027	452.86829	-214.85960	246.40118	95.56939	-167.94763	289.69281	94.89787	-248.74367	736.56958	559.77716	-424.44955	746.88452	543.38947	-292.76230	469.93869	233.45804	-369.07343	522.24292	210.87206	-296.86218	712.46735	1308.08264	-442.36862	
